<?xml version="1.0" standalone="no"?>
<!DOCTYPE svg PUBLIC "-//W3C//DTD SVG 20010904//EN"
 "http://www.w3.org/TR/2001/REC-SVG-20010904/DTD/svg10.dtd">
<svg version="1.0" xmlns="http://www.w3.org/2000/svg"
 width="500.000000pt" height="500.000000pt" viewBox="0 0 500.000000 500.000000"
 preserveAspectRatio="xMidYMid meet">
<metadata>
Created by potrace 1.11, written by Peter Selinger 2001-2013
</metadata>
<g transform="translate(0.000000,500.000000) scale(0.100000,-0.100000)"
fill="#000000" stroke="none">
<path d="M3305 3868 c-55 -78 -125 -178 -156 -222 -31 -45 -108 -155 -172
-246 -64 -91 -162 -232 -219 -313 -57 -81 -114 -163 -128 -182 -14 -19 -56
-78 -93 -132 -100 -143 -430 -616 -545 -778 -54 -77 -219 -313 -367 -525 -148
-212 -284 -406 -303 -432 l-34 -48 154 0 155 0 64 92 c80 115 98 141 459 657
473 676 599 855 608 866 4 6 33 46 63 89 109 160 187 272 202 291 10 13 87
123 204 290 49 72 106 153 125 180 35 50 260 372 288 411 8 12 34 49 58 83
l43 61 -153 0 -154 0 -99 -142z"/>
<path d="M1514 3755 c-2 -5 -5 -21 -8 -35 -2 -14 -11 -56 -19 -95 -9 -38 -18
-86 -21 -105 -3 -19 -12 -66 -20 -105 -8 -38 -17 -88 -20 -110 -4 -22 -9 -47
-11 -55 -4 -14 -33 -162 -70 -360 -8 -41 -17 -86 -20 -100 -3 -14 -8 -38 -10
-55 -3 -16 -8 -37 -10 -45 -2 -8 -6 -31 -9 -50 -3 -19 -8 -44 -10 -55 -2 -11
-18 -92 -36 -180 -17 -88 -33 -169 -36 -180 -2 -10 -6 -35 -9 -55 -3 -19 -14
-74 -24 -123 -10 -48 -16 -89 -12 -91 16 -8 702 1 709 9 8 9 204 288 344 490
30 44 69 100 87 125 115 162 121 174 112 205 -25 84 -74 159 -136 205 l-44 33
18 26 c33 46 81 150 95 204 18 69 14 189 -9 257 -35 106 -117 191 -225 235
-40 16 -79 18 -324 19 -182 1 -280 -2 -282 -9z m456 -360 c120 -62 43 -272
-110 -301 -8 -2 -43 -5 -78 -7 -53 -3 -62 -2 -58 12 3 9 7 27 10 41 2 14 7 36
10 50 3 14 8 38 11 54 7 47 26 140 30 154 6 18 148 16 185 -3z m28 -664 c69
-35 102 -94 97 -177 -3 -62 -34 -125 -86 -174 -62 -59 -93 -66 -271 -67 -181
-1 -167 -12 -144 108 8 41 22 115 31 164 9 50 21 107 26 128 l10 37 150 0
c127 0 155 -3 187 -19z"/>
<path d="M851 3580 c-12 -3 -94 -107 -203 -255 -101 -138 -192 -262 -203 -277
-11 -14 -27 -35 -35 -47 -8 -12 -93 -128 -188 -258 -95 -130 -172 -241 -170
-248 2 -6 107 -152 233 -323 127 -172 239 -326 250 -342 11 -15 84 -115 161
-222 l142 -193 206 1 c114 1 208 3 211 6 2 2 -24 42 -58 88 -35 47 -150 204
-257 350 -106 146 -210 288 -230 315 -21 28 -83 112 -138 188 l-101 138 192
262 c106 144 251 342 322 440 72 97 163 221 202 274 40 53 71 99 68 101 -6 6
-379 8 -404 2z"/>
<path d="M3750 3580 c-7 -4 128 -193 443 -621 162 -221 203 -277 284 -389 l52
-72 -28 -37 c-16 -20 -86 -115 -156 -211 -70 -96 -149 -204 -176 -240 -245
-334 -427 -585 -424 -588 2 -2 96 -4 210 -5 l207 -2 131 180 c72 99 249 341
394 538 145 197 263 362 263 366 0 5 -64 96 -142 202 -376 514 -555 759 -596
817 -25 34 -53 62 -61 63 -67 4 -395 3 -401 -1z"/>
<path d="M3210 3158 c-19 -22 -158 -219 -250 -354 -25 -36 -52 -73 -60 -82
-14 -14 -13 -15 5 -8 120 50 154 59 251 62 148 5 229 -23 321 -112 l54 -52
149 132 c82 72 149 137 149 144 1 18 -113 128 -172 165 -100 64 -211 102 -322
112 -33 3 -70 8 -83 11 -16 3 -29 -3 -42 -18z"/>
<path d="M2488 2132 c-9 -15 -30 -45 -45 -67 -51 -70 -239 -340 -246 -351 -7
-13 41 -118 81 -177 63 -91 162 -177 257 -225 285 -144 675 -82 976 155 32 25
59 48 59 51 0 3 -171 239 -195 270 -2 2 -39 -21 -82 -51 -127 -87 -249 -122
-385 -112 -112 9 -192 47 -273 132 -80 83 -124 208 -119 336 2 37 0 67 -4 67
-4 0 -15 -12 -24 -28z"/>
</g>
</svg>
